<mxfile host="app.diagrams.net" modified="2022-06-21T22:07:13.927Z" agent="5.0 (Macintosh; Intel Mac OS X 10_15_6) AppleWebKit/605.1.15 (KHTML, like Gecko) Version/14.0.3 Safari/605.1.15" etag="YZdH53iMtYh49O6FgClF" version="18.0.2" type="github">
  <diagram id="OLMWlwrW4MGCZe-kZoSg" name="Page-1">
    <mxGraphModel dx="944" dy="1789" grid="1" gridSize="10" guides="1" tooltips="1" connect="1" arrows="1" fold="1" page="1" pageScale="1" pageWidth="827" pageHeight="1169" math="0" shadow="0">
      <root>
        <mxCell id="0" />
        <mxCell id="1" parent="0" />
        <mxCell id="CVgzSgo_RLQxOmuJQFXY-9" value="" style="edgeStyle=orthogonalEdgeStyle;rounded=0;orthogonalLoop=1;jettySize=auto;html=1;fontColor=#000000;" parent="1" source="CVgzSgo_RLQxOmuJQFXY-4" target="CVgzSgo_RLQxOmuJQFXY-8" edge="1">
          <mxGeometry relative="1" as="geometry" />
        </mxCell>
        <mxCell id="CVgzSgo_RLQxOmuJQFXY-4" value="&lt;pre style=&quot;text-align: start; font-family: &amp;quot;JetBrains Mono&amp;quot;, monospace; font-size: 9.8pt;&quot;&gt;&lt;span style=&quot;background-color: rgb(255, 255, 255);&quot;&gt;EngineApplicationRunner&lt;/span&gt;&lt;/pre&gt;" style="text;html=1;align=center;verticalAlign=middle;resizable=0;points=[];autosize=1;strokeColor=none;fillColor=none;" parent="1" vertex="1">
          <mxGeometry x="110" y="185" width="190" height="50" as="geometry" />
        </mxCell>
        <mxCell id="CVgzSgo_RLQxOmuJQFXY-5" value="&lt;pre style=&quot;text-align: start; font-family: &amp;quot;JetBrains Mono&amp;quot;, monospace; font-size: 9.8pt;&quot;&gt;&lt;pre style=&quot;font-family: &amp;quot;JetBrains Mono&amp;quot;, monospace; font-size: 9.8pt;&quot;&gt;&lt;span style=&quot;background-color: rgb(255, 255, 255);&quot;&gt;AppApplicationRunner&lt;/span&gt;&lt;/pre&gt;&lt;/pre&gt;" style="text;html=1;align=center;verticalAlign=middle;resizable=0;points=[];autosize=1;strokeColor=none;fillColor=none;" parent="1" vertex="1">
          <mxGeometry x="105" y="700" width="170" height="50" as="geometry" />
        </mxCell>
        <mxCell id="CVgzSgo_RLQxOmuJQFXY-6" value="&lt;pre style=&quot;text-align: start; font-family: &amp;quot;JetBrains Mono&amp;quot;, monospace; font-size: 9.8pt;&quot;&gt;BackendApplicationRunner&lt;br&gt;&lt;/pre&gt;" style="text;html=1;align=center;verticalAlign=middle;resizable=0;points=[];autosize=1;strokeColor=none;fillColor=none;" parent="1" vertex="1">
          <mxGeometry x="100" y="790" width="200" height="50" as="geometry" />
        </mxCell>
        <mxCell id="CVgzSgo_RLQxOmuJQFXY-7" value="&lt;pre style=&quot;text-align: start; font-family: &amp;quot;JetBrains Mono&amp;quot;, monospace; font-size: 9.8pt;&quot;&gt;MonitorApplicationRunner&lt;br&gt;&lt;/pre&gt;" style="text;html=1;align=center;verticalAlign=middle;resizable=0;points=[];autosize=1;strokeColor=none;fillColor=none;" parent="1" vertex="1">
          <mxGeometry x="105" y="910" width="200" height="50" as="geometry" />
        </mxCell>
        <mxCell id="CVgzSgo_RLQxOmuJQFXY-8" value="&lt;pre style=&quot;text-align: start; font-family: &amp;quot;JetBrains Mono&amp;quot;, monospace; font-size: 9.8pt;&quot;&gt;&lt;pre style=&quot;font-family: &amp;quot;JetBrains Mono&amp;quot;, monospace; font-size: 9.8pt;&quot;&gt;&lt;span style=&quot;background-color: rgb(255, 255, 255);&quot;&gt;初始化&lt;span style=&quot;font-size: 9.8pt;&quot;&gt;ApplicationBootstrap列表&lt;/span&gt;&lt;/span&gt;&lt;/pre&gt;&lt;/pre&gt;" style="text;html=1;align=center;verticalAlign=middle;resizable=0;points=[];autosize=1;strokeColor=none;fillColor=none;fontColor=#000000;" parent="1" vertex="1">
          <mxGeometry x="360" y="185" width="240" height="50" as="geometry" />
        </mxCell>
        <mxCell id="CVgzSgo_RLQxOmuJQFXY-10" value="" style="shape=curlyBracket;whiteSpace=wrap;html=1;rounded=1;labelBackgroundColor=#FFFFFF;fontColor=#000000;" parent="1" vertex="1">
          <mxGeometry x="590" y="-110" width="20" height="640" as="geometry" />
        </mxCell>
        <mxCell id="CVgzSgo_RLQxOmuJQFXY-17" value="" style="edgeStyle=orthogonalEdgeStyle;rounded=0;orthogonalLoop=1;jettySize=auto;html=1;fontColor=#000000;" parent="1" source="CVgzSgo_RLQxOmuJQFXY-11" target="CVgzSgo_RLQxOmuJQFXY-16" edge="1">
          <mxGeometry relative="1" as="geometry" />
        </mxCell>
        <mxCell id="CVgzSgo_RLQxOmuJQFXY-11" value="&lt;pre style=&quot;text-align: start; background-color: rgb(43, 43, 43); color: rgb(169, 183, 198); font-family: &amp;quot;JetBrains Mono&amp;quot;, monospace; font-size: 9.8pt;&quot;&gt;EquipmentServerApplicationBootstrap&lt;/pre&gt;" style="text;html=1;align=center;verticalAlign=middle;resizable=0;points=[];autosize=1;strokeColor=none;fillColor=none;fontColor=#000000;" parent="1" vertex="1">
          <mxGeometry x="620" y="-110" width="290" height="50" as="geometry" />
        </mxCell>
        <mxCell id="CVgzSgo_RLQxOmuJQFXY-12" value="&lt;pre style=&quot;text-align: start; background-color: rgb(43, 43, 43); color: rgb(169, 183, 198); font-family: &amp;quot;JetBrains Mono&amp;quot;, monospace; font-size: 9.8pt;&quot;&gt;EngineResourceContextApplicationBootstrap：&lt;span style=&quot;font-size: 9.8pt; color: rgb(187, 181, 41);&quot;&gt;@Order&lt;/span&gt;&lt;span style=&quot;font-size: 9.8pt;&quot;&gt;(&lt;/span&gt;&lt;span style=&quot;font-size: 9.8pt; color: rgb(104, 151, 187);&quot;&gt;0&lt;/span&gt;&lt;span style=&quot;font-size: 9.8pt;&quot;&gt;)&lt;/span&gt;&lt;/pre&gt;" style="text;html=1;align=center;verticalAlign=middle;resizable=0;points=[];autosize=1;strokeColor=none;fillColor=none;fontColor=#000000;" parent="1" vertex="1">
          <mxGeometry x="630" y="480" width="420" height="50" as="geometry" />
        </mxCell>
        <mxCell id="CVgzSgo_RLQxOmuJQFXY-15" value="" style="edgeStyle=orthogonalEdgeStyle;rounded=0;orthogonalLoop=1;jettySize=auto;html=1;fontColor=#000000;" parent="1" source="CVgzSgo_RLQxOmuJQFXY-13" target="CVgzSgo_RLQxOmuJQFXY-14" edge="1">
          <mxGeometry relative="1" as="geometry" />
        </mxCell>
        <mxCell id="CVgzSgo_RLQxOmuJQFXY-13" value="&lt;pre style=&quot;text-align: start; background-color: rgb(43, 43, 43); color: rgb(169, 183, 198); font-family: &amp;quot;JetBrains Mono&amp;quot;, monospace; font-size: 9.8pt;&quot;&gt;APIServerApplicationBootstrap&lt;/pre&gt;" style="text;html=1;align=center;verticalAlign=middle;resizable=0;points=[];autosize=1;strokeColor=none;fillColor=none;fontColor=#000000;" parent="1" vertex="1">
          <mxGeometry x="630" y="70" width="240" height="50" as="geometry" />
        </mxCell>
        <mxCell id="CVgzSgo_RLQxOmuJQFXY-14" value="&lt;pre style=&quot;text-align: start; background-color: rgb(43, 43, 43); color: rgb(169, 183, 198); font-family: &amp;quot;JetBrains Mono&amp;quot;, monospace; font-size: 9.8pt;&quot;&gt;&lt;pre style=&quot;font-family: &amp;quot;JetBrains Mono&amp;quot;, monospace; font-size: 9.8pt;&quot;&gt;&lt;span style=&quot;color: rgb(98, 151, 85); font-style: italic;&quot;&gt;API服务初始化：&lt;/span&gt;&lt;/pre&gt;&lt;pre style=&quot;font-family: &amp;quot;JetBrains Mono&amp;quot;, monospace; font-size: 9.8pt;&quot;&gt;&lt;span style=&quot;font-size: 9.8pt; color: rgb(152, 118, 170);&quot;&gt;httpApiNettyServer&lt;/span&gt;&lt;span style=&quot;font-size: 9.8pt;&quot;&gt;.start()&lt;/span&gt;&lt;span style=&quot;font-size: 9.8pt; color: rgb(204, 120, 50);&quot;&gt;;&lt;/span&gt;&lt;/pre&gt;&lt;pre style=&quot;font-family: &amp;quot;JetBrains Mono&amp;quot;, monospace; font-size: 9.8pt;&quot;&gt;&lt;span style=&quot;font-size: 9.8pt; color: rgb(152, 118, 170);&quot;&gt;socketApiNettyServer&lt;/span&gt;&lt;span style=&quot;font-size: 9.8pt;&quot;&gt;.start()&lt;/span&gt;&lt;span style=&quot;font-size: 9.8pt; color: rgb(204, 120, 50);&quot;&gt;;&lt;/span&gt;&lt;/pre&gt;&lt;pre style=&quot;font-family: &amp;quot;JetBrains Mono&amp;quot;, monospace; font-size: 9.8pt;&quot;&gt;&lt;span style=&quot;color: rgb(152, 118, 170);&quot;&gt;websocketApiNettyServer&lt;/span&gt;.start()&lt;span style=&quot;color: rgb(204, 120, 50);&quot;&gt;;&lt;/span&gt;&lt;/pre&gt;&lt;pre style=&quot;font-family: &amp;quot;JetBrains Mono&amp;quot;, monospace; font-size: 9.8pt;&quot;&gt;&lt;br&gt;&lt;/pre&gt;&lt;/pre&gt;" style="text;html=1;align=center;verticalAlign=middle;resizable=0;points=[];autosize=1;strokeColor=none;fillColor=none;fontColor=#000000;" parent="1" vertex="1">
          <mxGeometry x="990" y="20" width="270" height="150" as="geometry" />
        </mxCell>
        <mxCell id="CVgzSgo_RLQxOmuJQFXY-16" value="&lt;pre style=&quot;text-align: start; background-color: rgb(43, 43, 43); color: rgb(169, 183, 198); font-family: &amp;quot;JetBrains Mono&amp;quot;, monospace; font-size: 9.8pt;&quot;&gt;&lt;pre style=&quot;font-family: &amp;quot;JetBrains Mono&amp;quot;, monospace; font-size: 9.8pt;&quot;&gt;&lt;span style=&quot;color: rgb(152, 118, 170);&quot;&gt;启动服务&lt;/span&gt;&lt;/pre&gt;&lt;pre style=&quot;font-family: &amp;quot;JetBrains Mono&amp;quot;, monospace; font-size: 9.8pt;&quot;&gt;&lt;span style=&quot;color: rgb(152, 118, 170);&quot;&gt;robotServer&lt;/span&gt;.start()&lt;span style=&quot;color: rgb(204, 120, 50);&quot;&gt;;&lt;/span&gt;&lt;/pre&gt;&lt;pre style=&quot;font-family: &amp;quot;JetBrains Mono&amp;quot;, monospace; font-size: 9.8pt;&quot;&gt;&lt;span style=&quot;color: rgb(152, 118, 170);&quot;&gt;robotAwakenNettyServer&lt;/span&gt;.start()&lt;span style=&quot;color: rgb(204, 120, 50);&quot;&gt;;&lt;/span&gt;&lt;/pre&gt;&lt;pre style=&quot;font-family: &amp;quot;JetBrains Mono&amp;quot;, monospace; font-size: 9.8pt;&quot;&gt;&lt;span style=&quot;color: rgb(152, 118, 170);&quot;&gt;chargerServerNettyServer&lt;/span&gt;.start()&lt;span style=&quot;color: rgb(204, 120, 50);&quot;&gt;;&lt;/span&gt;&lt;/pre&gt;&lt;pre style=&quot;font-family: &amp;quot;JetBrains Mono&amp;quot;, monospace; font-size: 9.8pt;&quot;&gt;&lt;span style=&quot;color: rgb(152, 118, 170);&quot;&gt;stopButtonServerNettyServer&lt;/span&gt;.start()&lt;span style=&quot;color: rgb(204, 120, 50);&quot;&gt;;&lt;/span&gt;&lt;/pre&gt;&lt;/pre&gt;" style="text;html=1;align=center;verticalAlign=middle;resizable=0;points=[];autosize=1;strokeColor=none;fillColor=none;fontColor=#000000;" parent="1" vertex="1">
          <mxGeometry x="985" y="-160" width="300" height="150" as="geometry" />
        </mxCell>
        <mxCell id="CVgzSgo_RLQxOmuJQFXY-20" value="" style="shape=curlyBracket;whiteSpace=wrap;html=1;rounded=1;labelBackgroundColor=#FFFFFF;fontColor=#000000;size=0.5;" parent="1" vertex="1">
          <mxGeometry x="1050" y="230" width="20" height="550" as="geometry" />
        </mxCell>
        <mxCell id="dCXnAdBvSb_dh4sdJ40b-1" value="Text" style="text;html=1;align=center;verticalAlign=middle;resizable=0;points=[];autosize=1;strokeColor=none;fillColor=none;" vertex="1" parent="1">
          <mxGeometry x="1100" y="250" width="40" height="20" as="geometry" />
        </mxCell>
      </root>
    </mxGraphModel>
  </diagram>
</mxfile>
